<svg version="1.1" id="Layer_1" xmlns="http://www.w3.org/2000/svg" xmlns:xlink="http://www.w3.org/1999/xlink" x="0px" y="0px"
	 width="100%" viewBox="0 0 269 273" enable-background="new 0 0 269 273" xml:space="preserve">
<path fill="#2B3042" opacity="1.000000" stroke="none" 
	d="
M1.000000,100.000000 
	C1.000000,66.666679 1.000000,33.833359 1.000000,1.000026 
	C90.666626,1.000018 180.333252,1.000018 269.999908,1.000009 
	C269.999939,91.999916 269.999939,182.999832 269.999969,273.999817 
	C180.333435,273.999878 90.666885,273.999878 1.000163,273.999939 
	C1.000000,216.166672 1.000000,158.333328 1.000000,100.000000 
M88.595383,79.906921 
	C88.831398,79.642639 89.067413,79.378357 89.843666,78.786362 
	C91.240799,77.204010 92.637932,75.621651 94.000290,74.000290 
	C94.000290,74.000290 94.037498,74.037811 94.676727,73.824570 
	C100.515144,69.933693 106.392868,66.099564 112.159782,62.105446 
	C113.354469,61.278019 114.137512,59.856243 115.110275,58.708385 
	C113.693504,58.168800 112.276741,57.629215 110.520454,56.810154 
	C110.304375,56.609344 110.117264,56.384438 109.636322,55.493237 
	C92.514008,47.154812 74.903458,46.667351 56.486176,52.294014 
	C56.182587,52.408653 56.002148,52.625744 55.984917,52.765305 
	C55.984917,52.765305 55.811665,52.702183 55.067986,52.802616 
	C32.335030,61.726044 17.631031,78.727570 9.317904,100.924576 
	C-0.666194,127.583290 -0.027865,154.535553 12.132464,180.529251 
	C21.690430,200.960190 36.889198,215.860641 58.526077,223.424728 
	C76.867073,229.836578 94.571289,227.306870 111.719711,218.993179 
	C113.124672,218.312042 114.260887,217.076569 115.521980,216.098679 
	C114.306435,214.892532 113.208946,213.530319 111.855461,212.506531 
	C104.991058,207.314255 97.476166,202.826004 91.273537,196.947037 
	C78.116798,184.476852 71.896576,168.151993 68.015068,149.943680 
	C68.001579,140.669479 67.988091,131.395279 68.255760,121.430466 
	C71.674683,107.345596 77.455521,94.352325 86.491531,82.506752 
	C86.677887,82.161217 86.864243,81.815681 87.561668,81.114799 
	C87.737976,80.747726 87.914291,80.380646 88.040337,80.054443 
	C88.040337,80.054443 88.094711,80.089668 88.595383,79.906921 
M133.531570,257.153290 
	C133.334915,257.423615 133.138260,257.693939 132.989471,257.996429 
	C132.989471,257.996429 132.991348,257.938812 132.345459,257.928772 
	C131.788361,258.232208 131.231262,258.535675 130.312637,258.926575 
	C130.312637,258.926575 129.969925,259.071136 129.393311,259.119751 
	C128.903290,259.402924 128.413269,259.686096 127.992020,259.998047 
	C127.992020,259.998047 128.020691,259.929230 127.424446,260.026917 
	C126.923897,260.338135 126.423355,260.649384 125.986374,260.987915 
	C125.986374,260.987915 126.010681,260.923126 125.419594,261.022644 
	C124.920731,261.334625 124.421867,261.646576 123.999985,261.941833 
	C123.999985,261.941833 123.983261,261.864838 123.204292,261.960205 
	C117.648422,263.680634 112.092552,265.401031 106.536682,267.121429 
	C106.599884,267.742310 106.663086,268.363159 106.726288,268.984009 
	C112.605858,271.321655 118.717606,272.218628 126.079208,271.096405 
	C141.239014,271.496033 156.371933,271.413544 171.048111,266.890930 
	C174.903946,265.702698 178.551483,263.838531 183.075363,262.129150 
	C189.064865,259.228394 195.054367,256.327637 201.276062,253.494995 
	C201.556717,253.497253 201.682266,253.382690 202.938721,252.301636 
	C203.333328,251.972610 203.727936,251.643585 204.683044,251.444778 
	C212.094711,246.088974 219.743790,241.024582 226.821304,235.258621 
	C230.553009,232.218460 233.287445,227.954193 237.134277,223.851212 
	C246.150299,214.657135 252.181732,203.543961 257.511566,191.996826 
	C257.792938,191.387253 257.306732,190.423401 257.683289,188.964920 
	C258.437897,186.979828 259.192505,184.994736 260.444031,182.813126 
	C260.623474,182.515793 260.802917,182.218460 261.363983,181.799896 
	C261.445892,181.694931 261.527802,181.589966 261.609711,181.484985 
	C261.409241,181.328918 261.208801,181.172852 261.025391,180.524826 
	C261.025391,180.524826 261.059479,180.033737 261.608948,179.781647 
	C262.650085,175.184799 263.691193,170.587936 265.060974,165.408127 
	C265.978363,162.355408 266.895752,159.302673 267.928314,155.368927 
	C267.931854,147.838333 267.935364,140.307755 267.713684,132.704712 
	C267.479034,132.651199 267.243103,132.645096 266.068817,132.726837 
	C256.405670,132.820297 246.742508,132.913757 236.524796,132.863556 
	C236.339508,132.817398 236.154205,132.771225 235.182236,132.508804 
	C233.865707,132.350769 232.549332,132.056564 231.232605,132.054993 
	C209.139359,132.028702 187.046021,132.023544 164.952835,132.072433 
	C163.315125,132.076050 161.678391,132.526367 159.129166,132.845764 
	C156.082977,132.754669 153.036804,132.663574 149.568726,132.216034 
	C148.189667,132.218018 146.810623,132.220001 145.205170,132.509476 
	C145.205170,132.509476 144.976501,132.795166 144.326859,132.823837 
	C143.682190,132.889084 143.037521,132.954315 142.025009,133.772858 
	C141.687469,135.550827 141.071594,137.326645 141.057724,139.107132 
	C140.969696,150.409897 140.960327,161.714218 141.067947,173.016647 
	C141.086426,174.957474 141.789978,176.891769 143.086960,178.945816 
	C161.009018,179.009766 178.931061,179.073715 197.053818,179.903671 
	C196.695007,181.641586 196.615372,183.499344 195.929642,185.096939 
	C192.764435,192.471191 189.430496,199.773041 186.107422,207.089523 
	C186.107422,207.089523 186.095825,207.139084 185.732803,207.399658 
	C185.518250,207.640030 185.432632,207.919907 185.326218,208.723190 
	C185.291519,208.888443 185.256821,209.053696 184.605759,209.471130 
	C183.430710,211.333420 182.255676,213.195709 181.002930,215.000275 
	C181.002930,215.000275 181.075760,215.063187 180.562607,215.305649 
	C179.949066,216.220978 179.335541,217.136307 178.196793,218.545364 
	C166.581467,233.817886 152.553299,246.371002 135.385406,256.108765 
	C134.903793,256.404755 134.422180,256.700714 134.001633,257.017670 
	C134.001633,257.017670 134.010162,256.953674 133.531570,257.153290 
M245.906631,82.857277 
	C248.236496,82.861458 250.566422,82.857582 252.896225,82.871811 
	C256.035370,82.890991 256.863464,81.056877 255.628555,78.640175 
	C253.150635,73.790833 250.586868,68.941414 247.563278,64.423485 
	C239.960266,53.062862 231.091492,42.811615 220.368851,34.195690 
	C200.317795,18.084179 177.754684,7.990478 151.294250,4.870301 
	C137.280792,3.482639 123.324478,3.316124 109.414764,6.757082 
	C111.049332,8.069840 112.781242,8.838551 114.502449,9.630525 
	C124.439796,14.202977 134.983902,17.805548 144.186981,23.554415 
	C165.139404,36.642712 180.579178,54.998005 191.071854,77.409180 
	C192.614014,80.703056 194.645294,82.921021 198.566513,82.895981 
	C214.051727,82.797089 229.537308,82.753487 245.906631,82.857277 
z"/>
<path fill="#E0295B" opacity="1.000000" stroke="none" 
	d="
M245.022751,82.689377 
	C229.537308,82.753487 214.051727,82.797089 198.566513,82.895981 
	C194.645294,82.921021 192.614014,80.703056 191.071854,77.409180 
	C180.579178,54.998005 165.139404,36.642712 144.186981,23.554415 
	C134.983902,17.805548 124.439796,14.202977 114.502449,9.630525 
	C112.781242,8.838551 111.049332,8.069840 109.414764,6.757082 
	C123.324478,3.316124 137.280792,3.482639 151.799408,5.231809 
	C152.544342,6.054727 152.784134,6.516138 152.575592,6.979904 
	C149.248352,7.123210 146.369431,7.264163 142.892685,7.434384 
	C143.585159,9.134945 143.685745,10.064519 144.203156,10.548417 
	C150.264267,16.217106 156.349609,21.861298 162.506454,27.425783 
	C168.166702,32.541454 173.942917,37.528591 179.628357,42.616673 
	C184.320053,46.815403 188.939789,51.094418 193.616699,55.309822 
	C199.393219,60.516338 205.121078,65.780701 211.011642,70.855598 
	C215.482758,74.707596 219.431747,79.520668 226.020477,79.939804 
	C230.004486,80.193245 233.983963,80.518082 238.404205,80.839844 
	C240.873932,80.908562 242.904922,80.948288 244.944000,81.271866 
	C244.975632,81.933609 244.999191,82.311493 245.022751,82.689377 
z"/>
<path fill="#D51570" opacity="1.000000" stroke="none" 
	d="
M259.947113,183.009644 
	C259.192505,184.994736 258.437897,186.979828 257.286621,189.496201 
	C254.937408,192.702484 252.984863,195.377487 250.646301,198.008713 
	C245.441879,195.686096 240.131653,194.070602 235.932266,190.956909 
	C230.923019,187.242737 227.584808,180.667709 222.207718,178.215622 
	C215.954285,175.363892 212.692719,170.237488 208.133774,166.103516 
	C206.418701,164.548309 204.903320,162.774872 203.218811,161.183594 
	C195.297516,153.700760 187.312973,146.284180 179.462372,138.728241 
	C178.613251,137.910980 178.483887,136.345901 178.487579,135.106247 
	C186.305237,135.091980 193.655975,135.099182 200.854004,135.366547 
	C198.821381,137.887573 198.695160,139.803711 201.116577,142.015762 
	C206.533524,146.964340 211.713913,152.171738 217.000595,157.263382 
	C217.356003,157.605652 217.752411,157.979996 218.200867,158.139587 
	C223.541138,160.039917 226.667648,164.255524 229.672852,168.722137 
	C230.750732,170.324203 232.453171,171.536102 233.970184,172.807190 
	C239.022659,177.040665 244.205414,181.122864 249.166809,185.459152 
	C251.879944,187.830490 254.258194,188.349152 256.924164,185.573608 
	C257.834656,184.625671 258.934021,183.859085 259.947113,183.009644 
z"/>
<path fill="#7E2090" opacity="1.000000" stroke="none" 
	d="
M67.936752,150.844238 
	C71.896576,168.151993 78.116798,184.476852 91.273537,196.947037 
	C97.476166,202.826004 104.991058,207.314255 111.855461,212.506531 
	C113.208946,213.530319 114.306435,214.892532 115.521980,216.098679 
	C114.260887,217.076569 113.124672,218.312042 111.719711,218.993179 
	C94.571289,227.306870 76.867073,229.836578 58.526077,223.424728 
	C36.889198,215.860641 21.690430,200.960190 12.132464,180.529251 
	C-0.027865,154.535553 -0.666194,127.583290 9.317904,100.924576 
	C17.631031,78.727570 32.335030,61.726044 55.420052,53.029160 
	C55.764523,53.439976 55.756931,53.624249 55.474640,53.991776 
	C51.447803,56.454166 47.695671,58.733295 43.621933,61.120514 
	C39.830013,64.113647 36.359695,66.998695 32.613365,70.069191 
	C30.135502,73.048431 27.933655,75.842216 25.437862,78.806870 
	C23.023315,81.933632 20.902710,84.889519 18.541399,88.089661 
	C16.110945,94.122772 13.921198,99.911621 11.480193,105.947113 
	C9.789097,111.456673 8.349257,116.719589 6.889788,122.329193 
	C6.847551,123.362190 6.824946,124.048492 6.660633,125.111740 
	C6.073974,130.318192 5.629024,135.147705 5.187126,140.397263 
	C5.505596,144.544510 5.821014,148.271698 6.200524,152.380249 
	C10.434428,176.811539 21.129473,197.147705 41.149010,211.651062 
	C55.083763,221.746216 70.666809,226.631424 88.533188,223.200562 
	C92.644173,222.464325 96.330719,221.740891 100.359039,220.914764 
	C101.786667,220.387360 102.980484,220.127350 103.934746,219.501862 
	C105.648232,218.378693 107.217842,217.035995 108.847572,215.785034 
	C107.554688,214.370712 106.372108,212.832825 104.949913,211.563385 
	C98.643570,205.934280 92.296692,200.349503 85.895325,194.828888 
	C84.555199,193.673141 82.922577,192.856537 81.310043,191.530838 
	C78.134125,185.121704 75.072891,179.065399 71.906891,172.660706 
	C70.195717,165.177597 68.589310,158.042877 67.221603,150.895844 
	C67.460320,150.883545 67.936752,150.844238 67.936752,150.844238 
z"/>
<path fill="#DB196B" opacity="1.000000" stroke="none" 
	d="
M260.195557,182.911377 
	C258.934021,183.859085 257.834656,184.625671 256.924164,185.573608 
	C254.258194,188.349152 251.879944,187.830490 249.166809,185.459152 
	C244.205414,181.122864 239.022659,177.040665 233.970184,172.807190 
	C232.453171,171.536102 230.750732,170.324203 229.672852,168.722137 
	C226.667648,164.255524 223.541138,160.039917 218.200867,158.139587 
	C217.752411,157.979996 217.356003,157.605652 217.000595,157.263382 
	C211.713913,152.171738 206.533524,146.964340 201.116577,142.015762 
	C198.695160,139.803711 198.821381,137.887573 201.315918,135.334808 
	C205.948425,135.020981 209.966309,134.999039 214.029144,135.346497 
	C216.122070,138.626572 217.826050,141.881180 220.305313,144.360565 
	C223.387085,147.442505 227.248886,149.726395 230.529572,152.630859 
	C240.768066,161.695267 250.891464,170.889709 261.059479,180.033737 
	C261.059479,180.033737 261.025391,180.524826 261.010101,180.996674 
	C260.994812,181.468536 260.982361,181.921127 260.982361,181.921112 
	C260.802917,182.218460 260.623474,182.515793 260.195557,182.911377 
z"/>
<path fill="#B10F89" opacity="1.000000" stroke="none" 
	d="
M236.472168,224.242615 
	C233.287445,227.954193 230.553009,232.218460 226.821304,235.258621 
	C219.743790,241.024582 212.094711,246.088974 204.428772,251.175232 
	C202.471680,248.206970 201.079971,245.231552 198.987793,242.879120 
	C196.336304,239.897781 193.337982,237.108795 190.086594,234.805115 
	C185.566528,231.602570 180.672745,228.927444 176.056580,225.696671 
	C177.540451,222.951340 178.906647,220.535889 180.422455,217.838013 
	C180.739960,216.724792 180.907867,215.893997 181.075760,215.063187 
	C181.075760,215.063187 181.002930,215.000275 181.364655,214.925522 
	C182.891617,212.973495 184.056885,211.096222 185.222137,209.218933 
	C185.256821,209.053696 185.291519,208.888443 185.554794,208.326477 
	C185.967087,207.697601 186.071228,207.434036 186.095825,207.139084 
	C186.095825,207.139084 186.107422,207.089523 186.434708,207.011627 
	C187.814667,206.252426 188.867340,205.571106 189.936859,205.323792 
	C191.373260,209.925125 191.834930,214.854980 194.416092,218.097733 
	C199.456024,224.429443 205.417679,230.123581 211.567764,235.419708 
	C213.533722,237.112686 218.136337,238.129837 220.067902,236.985016 
	C224.216583,234.526138 227.412674,230.459976 231.298065,226.925293 
	C233.222336,225.946716 234.847244,225.094650 236.472168,224.242615 
z"/>
<path fill="#C1137C" opacity="1.000000" stroke="none" 
	d="
M236.803223,224.046906 
	C234.847244,225.094650 233.222336,225.946716 231.028763,226.718704 
	C222.378235,219.593521 214.232880,212.619400 206.241074,205.473572 
	C202.192368,201.853439 198.056168,198.704086 192.369812,198.664612 
	C194.697235,193.592880 196.912979,188.840973 199.289490,184.378632 
	C201.289612,189.541443 204.318542,192.801651 209.896423,193.422592 
	C211.480392,193.598923 213.104355,195.083710 214.350861,196.328140 
	C219.145920,201.115295 223.657883,206.190933 228.533524,210.891251 
	C234.759338,216.893173 239.151398,216.542465 245.163284,209.732681 
	C247.248245,205.655701 249.140289,201.854095 251.032318,198.052490 
	C252.984863,195.377487 254.937408,192.702484 257.033905,189.825974 
	C257.306732,190.423401 257.792938,191.387253 257.511566,191.996826 
	C252.181732,203.543961 246.150299,214.657135 236.803223,224.046906 
z"/>
<path fill="#DC3F4D" opacity="1.000000" stroke="none" 
	d="
M153.023926,6.977549 
	C152.784134,6.516138 152.544342,6.054727 152.196838,5.358461 
	C177.754684,7.990478 200.317795,18.084179 220.368851,34.195690 
	C231.091492,42.811615 239.960266,53.062862 247.563278,64.423485 
	C250.586868,68.941414 253.150635,73.790833 255.628555,78.640175 
	C256.863464,81.056877 256.035370,82.890991 252.896225,82.871811 
	C250.566422,82.857582 248.236496,82.861458 245.464691,82.773331 
	C244.999191,82.311493 244.975632,81.933609 245.344238,81.257149 
	C251.689117,80.108223 252.432678,78.417847 249.837036,73.150978 
	C245.108597,63.556339 235.281235,58.901691 228.778168,51.018059 
	C225.325592,46.832520 221.466019,42.878086 217.298264,39.410591 
	C210.328278,33.611710 202.852707,28.424725 195.792572,22.729008 
	C185.602341,14.508101 173.534225,11.231495 160.697113,8.791867 
	C157.911377,8.095986 155.467651,7.536767 153.023926,6.977549 
z"/>
<path fill="#AC098F" opacity="1.000000" stroke="none" 
	d="
M175.938934,226.026550 
	C180.672745,228.927444 185.566528,231.602570 190.086594,234.805115 
	C193.337982,237.108795 196.336304,239.897781 198.987793,242.879120 
	C201.079971,245.231552 202.471680,248.206970 204.148514,251.110138 
	C203.727936,251.643585 203.333328,251.972610 202.214981,252.742844 
	C201.491241,253.184052 201.070770,253.280716 200.691757,253.337952 
	C199.183456,253.649139 198.027924,253.820663 196.929138,254.170456 
	C190.051147,256.360016 184.913803,255.266693 180.316833,248.679169 
	C176.980011,243.897430 171.285995,240.760605 166.788330,236.570343 
	C169.935410,232.842422 172.937164,229.434479 175.938934,226.026550 
z"/>
<path fill="#CC1378" opacity="1.000000" stroke="none" 
	d="
M87.050598,81.470146 
	C86.864243,81.815681 86.677887,82.161217 86.262802,82.469223 
	C85.682281,82.276917 85.330490,82.122139 84.739532,81.971489 
	C84.500374,81.975609 84.021492,81.985741 83.922363,81.648651 
	C83.289780,80.497124 82.927536,79.208199 82.195518,78.944077 
	C76.823090,77.005630 72.893982,73.530304 70.156769,68.557892 
	C69.806488,67.921570 68.817535,67.649307 68.149330,67.173454 
	C64.455498,64.542931 60.769386,61.901569 57.050148,59.242134 
	C58.231171,57.157978 59.109173,55.608570 60.352570,53.942024 
	C66.475334,52.862640 72.232704,51.900398 77.876053,51.219994 
	C77.628998,52.769062 77.065224,54.180836 77.433975,55.279671 
	C79.562782,61.623325 89.421822,68.745651 96.075592,69.398834 
	C95.267792,71.135345 94.652649,72.586578 94.037506,74.037811 
	C94.037498,74.037811 94.000290,74.000290 93.661301,74.044029 
	C91.526314,75.719597 89.730309,77.351418 87.959503,79.262009 
	C88.021378,79.723740 88.058044,79.906708 88.094711,80.089668 
	C88.094711,80.089668 88.040337,80.054443 87.846817,80.240967 
	C87.452400,80.775040 87.251495,81.122589 87.050598,81.470146 
z"/>
<path fill="#E01C63" opacity="1.000000" stroke="none" 
	d="
M267.813141,156.249954 
	C266.895752,159.302673 265.978363,162.355408 264.543274,165.785858 
	C255.282990,168.943420 253.796371,168.422623 248.000519,161.155090 
	C246.887436,159.759399 245.266876,158.759766 243.847336,157.618576 
	C236.409912,151.639618 229.056915,145.611862 229.390472,134.795975 
	C232.213120,134.405869 234.627151,134.051834 237.020111,133.861282 
	C236.999008,134.024765 236.936279,134.348419 236.950806,134.746979 
	C236.623672,139.363144 238.238037,142.071060 242.049545,144.436035 
	C247.736450,147.964676 252.962311,152.298172 258.101379,156.625290 
	C261.308899,159.326035 263.804413,158.327927 266.824890,156.206161 
	C267.373932,156.230072 267.593536,156.240005 267.813141,156.249954 
z"/>
<path fill="#801792" opacity="1.000000" stroke="none" 
	d="
M176.056580,225.696655 
	C172.937164,229.434479 169.935410,232.842422 166.510223,236.713440 
	C163.079391,239.793732 160.071991,242.410965 156.781265,245.209198 
	C153.634750,247.878021 150.771545,250.365814 147.589279,252.990906 
	C141.400360,256.191162 135.474045,259.153809 129.706741,262.399017 
	C128.508377,263.073364 127.009270,265.014069 127.246605,265.977539 
	C127.535133,267.148834 129.397354,268.214600 130.798782,268.748199 
	C132.127777,269.254242 133.754135,269.186005 135.227051,269.073486 
	C143.810471,268.417786 152.387207,267.674774 161.328033,266.848114 
	C167.147446,265.217865 172.605057,263.700745 178.487228,262.177704 
	C180.039413,262.209442 181.167038,262.247101 182.294662,262.284760 
	C178.551483,263.838531 174.903946,265.702698 171.048111,266.890930 
	C156.371933,271.413544 141.239014,271.496033 125.231560,270.928162 
	C120.743607,270.023010 117.103310,269.286102 113.463013,268.549194 
	C113.523788,268.121155 113.584564,267.693115 113.645340,267.265106 
	C117.091316,265.464996 120.537285,263.664917 123.983261,261.864838 
	C123.983261,261.864838 123.999985,261.941833 124.236145,261.850403 
	C124.985107,261.480347 125.497894,261.201752 126.010681,260.923126 
	C126.010681,260.923126 125.986374,260.987915 126.230194,260.874268 
	C126.989571,260.483490 127.505127,260.206360 128.020691,259.929230 
	C128.020691,259.929230 127.992020,259.998047 128.226501,259.901855 
	C128.963974,259.560791 129.466949,259.315979 129.969925,259.071136 
	C129.969925,259.071136 130.312637,258.926575 130.793182,258.796143 
	C131.846268,258.423431 132.418808,258.181122 132.991348,257.938843 
	C132.991348,257.938812 132.989471,257.996429 133.155273,257.824890 
	C133.571671,257.440735 133.801361,257.207489 134.010162,256.953674 
	C134.010162,256.953674 134.001633,257.017670 134.238434,256.918304 
	C134.968109,256.554688 135.460983,256.290436 135.953857,256.026184 
	C152.553299,246.371002 166.581467,233.817886 178.716141,218.306274 
	C179.581284,218.084946 179.927063,218.102692 180.272858,218.120438 
	C178.906647,220.535889 177.540451,222.951340 176.056580,225.696655 
z"/>
<path fill="#A30995" opacity="1.000000" stroke="none" 
	d="
M182.685013,262.206970 
	C181.167038,262.247101 180.039413,262.209442 178.332642,261.858551 
	C170.857193,256.039612 163.960892,250.533905 157.064575,245.028198 
	C160.071991,242.410965 163.079391,239.793732 166.364914,237.033417 
	C171.285995,240.760605 176.980011,243.897430 180.316833,248.679169 
	C184.913803,255.266693 190.051147,256.360016 196.929138,254.170456 
	C198.027924,253.820663 199.183456,253.649139 200.684357,253.374664 
	C201.055954,253.354141 201.043869,253.426895 201.043869,253.426895 
	C195.054367,256.327637 189.064865,259.228394 182.685013,262.206970 
z"/>
<path fill="#DE1C66" opacity="1.000000" stroke="none" 
	d="
M228.981888,134.832031 
	C229.056915,145.611862 236.409912,151.639618 243.847336,157.618576 
	C245.266876,158.759766 246.887436,159.759399 248.000519,161.155090 
	C253.796371,168.422623 255.282990,168.943420 264.378906,166.077347 
	C263.691193,170.587936 262.650085,175.184799 261.334229,179.907684 
	C250.891464,170.889709 240.768066,161.695267 230.529572,152.630859 
	C227.248886,149.726395 223.387085,147.442505 220.305313,144.360565 
	C217.826050,141.881180 216.122070,138.626572 214.495956,135.310669 
	C219.605835,134.880951 224.293869,134.856491 228.981888,134.832031 
z"/>
<path fill="#D11670" opacity="1.000000" stroke="none" 
	d="
M96.268250,69.113556 
	C89.421822,68.745651 79.562782,61.623325 77.433975,55.279671 
	C77.065224,54.180836 77.628998,52.769062 78.338531,51.220997 
	C84.655693,51.496403 90.440826,51.777187 96.123154,52.694710 
	C100.798439,53.449619 105.351753,54.959923 109.959122,56.135433 
	C110.117264,56.384438 110.304375,56.609344 110.649170,57.298256 
	C109.465332,59.375492 108.403870,61.311386 106.787910,62.481487 
	C103.437347,64.907600 99.792244,66.926956 96.268250,69.113556 
z"/>
<path fill="#A62374" opacity="1.000000" stroke="none" 
	d="
M229.390472,134.795975 
	C224.293869,134.856491 219.605835,134.880951 214.451019,134.941254 
	C209.966309,134.999039 205.948425,135.020981 201.468613,135.074646 
	C193.655975,135.099182 186.305237,135.091980 178.019073,135.071472 
	C172.054962,135.035187 167.026260,135.012253 161.611359,134.863922 
	C156.148453,134.824127 151.071747,134.909714 145.736053,135.108490 
	C144.814728,135.554077 144.152405,135.886459 143.555603,135.913757 
	C144.072906,134.670822 144.524704,133.733002 144.976501,132.795166 
	C144.976501,132.795166 145.205170,132.509476 145.632507,132.440674 
	C147.370117,132.438721 148.680359,132.505600 149.990616,132.572464 
	C153.036804,132.663574 156.082977,132.754669 160.046570,132.883087 
	C185.965607,132.855316 210.967270,132.790192 235.968918,132.725067 
	C236.154205,132.771225 236.339508,132.817398 236.790634,133.107956 
	C237.056473,133.352356 237.041199,133.697784 237.041199,133.697784 
	C234.627151,134.051834 232.213120,134.405869 229.390472,134.795975 
z"/>
<path fill="#971C80" opacity="1.000000" stroke="none" 
	d="
M84.978699,81.967369 
	C85.330490,82.122139 85.682281,82.276917 86.093338,82.569275 
	C77.455521,94.352325 71.674683,107.345596 67.865891,121.758942 
	C67.476028,122.087410 66.976776,122.068146 66.860977,121.717224 
	C66.867416,118.927269 66.989662,116.488251 67.242996,113.710175 
	C68.339317,110.298721 69.304543,107.226326 70.454369,103.867767 
	C73.408325,98.728271 76.177681,93.874931 79.110489,88.730644 
	C80.854271,86.627838 82.434593,84.815979 84.181679,82.837234 
	C84.567726,82.444275 84.777817,82.209953 84.978699,81.967369 
z"/>
<path fill="#A22873" opacity="1.000000" stroke="none" 
	d="
M109.797722,55.814335 
	C105.351753,54.959923 100.798439,53.449619 96.123154,52.694710 
	C90.440826,51.777187 84.655693,51.496403 78.452553,50.939156 
	C72.232704,51.900398 66.475334,52.862640 59.931065,53.932404 
	C58.012554,53.962788 56.880947,53.885651 55.749340,53.808517 
	C55.756931,53.624249 55.764523,53.439976 55.791893,52.978943 
	C55.811665,52.702183 55.984917,52.765305 56.129951,52.736702 
	C56.495571,52.551941 56.709774,52.387478 56.917599,52.214703 
	C74.903458,46.667351 92.514008,47.154812 109.797722,55.814335 
z"/>
<path fill="#8B3589" opacity="1.000000" stroke="none" 
	d="
M144.651672,132.809509 
	C144.524704,133.733002 144.072906,134.670822 143.524506,136.275787 
	C143.417587,137.922394 143.407272,138.901871 143.332825,140.355881 
	C143.225510,151.052841 143.093674,161.276413 143.221344,171.496719 
	C143.244171,173.324875 144.340622,175.139618 145.377289,177.017288 
	C152.209030,177.233780 158.604858,177.393555 165.451874,177.609009 
	C168.932358,177.631058 171.961655,177.597412 175.446701,177.624176 
	C179.265900,177.641541 182.629349,177.598526 186.452362,177.608551 
	C190.326309,177.631348 193.740692,177.601089 197.201569,177.848480 
	C197.285355,178.310059 197.322632,178.493988 197.233231,178.792877 
	C197.106537,178.907822 196.853119,179.137665 196.853119,179.137665 
	C178.931061,179.073715 161.009018,179.009766 142.587494,178.443756 
	C142.189621,162.967651 142.291245,147.993607 142.392853,133.019562 
	C143.037521,132.954315 143.682190,132.889084 144.651672,132.809509 
z"/>
<path fill="#A24067" opacity="1.000000" stroke="none" 
	d="
M237.020111,133.861267 
	C237.041199,133.697784 237.056473,133.352356 237.067917,133.179779 
	C246.742508,132.913757 256.405670,132.820297 266.767944,132.758316 
	C267.467102,132.789795 267.938934,132.777161 267.938904,132.777161 
	C267.935364,140.307755 267.931854,147.838333 267.870728,155.809448 
	C267.593536,156.240005 267.373932,156.230072 266.879456,155.719116 
	C266.851257,150.402542 267.084412,145.586273 267.348572,140.771698 
	C267.599945,136.189133 265.401581,133.879532 260.864868,133.929214 
	C252.888092,134.016586 244.912415,134.203308 236.936279,134.348419 
	C236.936279,134.348419 236.999008,134.024765 237.020111,133.861267 
z"/>
<path fill="#39223C" opacity="1.000000" stroke="none" 
	d="
M235.575577,132.616943 
	C210.967270,132.790192 185.965607,132.855316 160.502594,132.844727 
	C161.678391,132.526367 163.315125,132.076050 164.952835,132.072433 
	C187.046021,132.023544 209.139359,132.028702 231.232605,132.054993 
	C232.549332,132.056564 233.865707,132.350769 235.575577,132.616943 
z"/>
<path fill="#6F3B8E" opacity="1.000000" stroke="none" 
	d="
M123.593773,261.912537 
	C120.537285,263.664917 117.091316,265.464996 113.645340,267.265106 
	C113.584564,267.693115 113.523788,268.121155 113.463013,268.549194 
	C117.103310,269.286102 120.743607,270.023010 124.774506,270.896088 
	C118.717606,272.218628 112.605858,271.321655 106.726288,268.984009 
	C106.663086,268.363159 106.599884,267.742310 106.536682,267.121429 
	C112.092552,265.401031 117.648422,263.680634 123.593773,261.912537 
z"/>
<path fill="#8B3589" opacity="1.000000" stroke="none" 
	d="
M199.128708,184.089050 
	C196.912979,188.840973 194.697235,193.592880 192.233795,198.996979 
	C191.297379,201.396057 190.608704,203.142914 189.920013,204.889801 
	C188.867340,205.571106 187.814667,206.252426 186.459518,207.017303 
	C189.430496,199.773041 192.764435,192.471191 195.929642,185.096939 
	C196.615372,183.499344 196.695007,181.641586 196.953461,179.520660 
	C196.853119,179.137665 197.106537,178.907822 197.454391,179.023529 
	C198.320145,180.067474 198.838043,180.995712 199.302246,182.282669 
	C199.208618,183.123932 199.168655,183.606491 199.128708,184.089050 
z"/>
<path fill="#A32974" opacity="1.000000" stroke="none" 
	d="
M96.075592,69.398834 
	C99.792244,66.926956 103.437347,64.907600 106.787910,62.481487 
	C108.403870,61.311386 109.465332,59.375492 110.818924,57.437996 
	C112.276741,57.629215 113.693504,58.168800 115.110275,58.708389 
	C114.137512,59.856243 113.354469,61.278019 112.159782,62.105446 
	C106.392868,66.099564 100.515144,69.933693 94.357117,73.931190 
	C94.652649,72.586578 95.267792,71.135345 96.075592,69.398834 
z"/>
<path fill="#933497" opacity="1.000000" stroke="none" 
	d="
M66.976776,122.068146 
	C66.976776,122.068146 67.476028,122.087410 67.725311,122.104248 
	C67.988091,131.395279 68.001579,140.669479 67.975906,150.393951 
	C67.936752,150.844238 67.460320,150.883545 67.121506,150.647705 
	C66.550995,149.923096 66.319298,149.434326 66.096603,148.502289 
	C66.045586,145.688034 65.985558,143.317047 65.943817,140.492142 
	C66.273277,134.973816 66.584442,129.909393 66.898926,124.496826 
	C66.927086,123.455162 66.951927,122.761650 66.976776,122.068146 
z"/>
<path fill="#252237" opacity="1.000000" stroke="none" 
	d="
M142.208923,133.396210 
	C142.291245,147.993607 142.189621,162.967651 142.132538,178.385391 
	C141.789978,176.891769 141.086426,174.957474 141.067947,173.016647 
	C140.960327,161.714218 140.969696,150.409897 141.057724,139.107132 
	C141.071594,137.326645 141.687469,135.550827 142.208923,133.396210 
z"/>
<path fill="#A32974" opacity="1.000000" stroke="none" 
	d="
M87.934303,78.983238 
	C89.730309,77.351418 91.526314,75.719597 93.678688,74.063538 
	C92.637932,75.621651 91.240799,77.204010 89.230637,78.918037 
	C88.389839,79.027550 88.162071,79.005394 87.934303,78.983238 
z"/>
<path fill="#8B3589" opacity="1.000000" stroke="none" 
	d="
M184.913956,209.345032 
	C184.056885,211.096222 182.891617,212.973495 181.403503,214.954376 
	C182.255676,213.195709 183.430710,211.333420 184.913956,209.345032 
z"/>
<path fill="#39223C" opacity="1.000000" stroke="none" 
	d="
M149.779663,132.394257 
	C148.680359,132.505600 147.370117,132.438721 145.745712,132.296906 
	C146.810623,132.220001 148.189667,132.218018 149.779663,132.394257 
z"/>
<path fill="#8B3589" opacity="1.000000" stroke="none" 
	d="
M180.422455,217.838013 
	C179.927063,218.102692 179.581284,218.084946 178.978760,218.059418 
	C179.335541,217.136307 179.949066,216.220978 180.819183,215.184418 
	C180.907867,215.893997 180.739960,216.724792 180.422455,217.838013 
z"/>
<path fill="#B10F89" opacity="1.000000" stroke="none" 
	d="
M201.159973,253.460938 
	C201.043869,253.426895 201.055954,253.354141 201.063354,253.317429 
	C201.070770,253.280716 201.491241,253.184052 201.571991,253.167694 
	C201.682266,253.382690 201.556717,253.497253 201.159973,253.460938 
z"/>
<path fill="#6F3B8E" opacity="1.000000" stroke="none" 
	d="
M125.715134,260.972900 
	C125.497894,261.201752 124.985107,261.480347 124.197662,261.858734 
	C124.421867,261.646576 124.920731,261.334625 125.715134,260.972900 
z"/>
<path fill="#6F3B8E" opacity="1.000000" stroke="none" 
	d="
M127.722565,259.978088 
	C127.505127,260.206360 126.989571,260.483490 126.198410,260.860596 
	C126.423355,260.649384 126.923897,260.338135 127.722565,259.978088 
z"/>
<path fill="#6F3B8E" opacity="1.000000" stroke="none" 
	d="
M129.681610,259.095459 
	C129.466949,259.315979 128.963974,259.560791 128.192123,259.887451 
	C128.413269,259.686096 128.903290,259.402924 129.681610,259.095459 
z"/>
<path fill="#6F3B8E" opacity="1.000000" stroke="none" 
	d="
M132.668396,257.933807 
	C132.418808,258.181122 131.846268,258.423431 130.973938,258.752441 
	C131.231262,258.535675 131.788361,258.232208 132.668396,257.933807 
z"/>
<path fill="#6F3B8E" opacity="1.000000" stroke="none" 
	d="
M135.669632,256.067474 
	C135.460983,256.290436 134.968109,256.554688 134.207901,256.907837 
	C134.422180,256.700714 134.903793,256.404755 135.669632,256.067474 
z"/>
<path fill="#6F3B8E" opacity="1.000000" stroke="none" 
	d="
M133.770874,257.053467 
	C133.801361,257.207489 133.571671,257.440735 133.131332,257.808838 
	C133.138260,257.693939 133.334915,257.423615 133.770874,257.053467 
z"/>
<path fill="#7E2090" opacity="1.000000" stroke="none" 
	d="
M56.701889,52.254356 
	C56.709774,52.387478 56.495571,52.551941 56.109924,52.826698 
	C56.002148,52.625744 56.182587,52.408653 56.701889,52.254356 
z"/>
<path fill="#971C80" opacity="1.000000" stroke="none" 
	d="
M87.306129,81.292473 
	C87.251495,81.122589 87.452400,80.775040 87.871948,80.220528 
	C87.914291,80.380646 87.737976,80.747726 87.306129,81.292473 
z"/>
<path fill="#971C80" opacity="1.000000" stroke="none" 
	d="
M87.959503,79.262009 
	C88.162071,79.005394 88.389839,79.027550 88.960518,79.081894 
	C89.067413,79.378357 88.831398,79.642639 88.345047,79.998291 
	C88.058044,79.906708 88.021378,79.723740 87.959503,79.262009 
z"/>
<path fill="#DE1C66" opacity="1.000000" stroke="none" 
	d="
M261.173157,181.860504 
	C260.982361,181.921127 260.994812,181.468536 261.001587,181.242661 
	C261.208801,181.172852 261.409241,181.328918 261.609711,181.484985 
	C261.527802,181.589966 261.445892,181.694931 261.173157,181.860504 
z"/>
<path fill="#39223C" opacity="1.000000" stroke="none" 
	d="
M267.826294,132.740936 
	C267.938934,132.777161 267.467102,132.789795 267.236481,132.738098 
	C267.243103,132.645096 267.479034,132.651199 267.826294,132.740936 
z"/>
<path fill="#8B3589" opacity="1.000000" stroke="none" 
	d="
M185.914307,207.269379 
	C186.071228,207.434036 185.967087,207.697601 185.629654,208.084503 
	C185.432632,207.919907 185.518250,207.640030 185.914307,207.269379 
z"/>
<path fill="#F12D50" opacity="1.000000" stroke="none" 
	d="
M152.575592,6.979904 
	C155.467651,7.536767 157.911377,8.095986 160.825012,9.111132 
	C163.728043,11.766176 166.131119,13.999640 168.599335,16.158619 
	C181.052322,27.051405 193.560318,37.881683 205.965118,48.828968 
	C210.162964,52.533562 214.082672,56.551609 218.193375,60.357410 
	C220.087753,62.111286 222.011429,63.882221 224.138000,65.327271 
	C230.056702,69.349144 236.065872,73.224815 237.965469,80.810844 
	C233.983963,80.518082 230.004486,80.193245 226.020477,79.939804 
	C219.431747,79.520668 215.482758,74.707596 211.011642,70.855598 
	C205.121078,65.780701 199.393219,60.516338 193.616699,55.309822 
	C188.939789,51.094418 184.320053,46.815403 179.628357,42.616673 
	C173.942917,37.528591 168.166702,32.541454 162.506454,27.425783 
	C156.349609,21.861298 150.264267,16.217106 144.203156,10.548417 
	C143.685745,10.064519 143.585159,9.134945 142.892685,7.434384 
	C146.369431,7.264163 149.248352,7.123210 152.575592,6.979904 
z"/>
<path fill="#F1354B" opacity="1.000000" stroke="none" 
	d="
M238.404205,80.839844 
	C236.065872,73.224815 230.056702,69.349144 224.138000,65.327271 
	C222.011429,63.882221 220.087753,62.111286 218.193375,60.357410 
	C214.082672,56.551609 210.162964,52.533562 205.965118,48.828968 
	C193.560318,37.881683 181.052322,27.051405 168.599335,16.158619 
	C166.131119,13.999640 163.728043,11.766176 161.167038,9.247795 
	C173.534225,11.231495 185.602341,14.508101 195.792572,22.729008 
	C202.852707,28.424725 210.328278,33.611710 217.298264,39.410591 
	C221.466019,42.878086 225.325592,46.832520 228.778168,51.018059 
	C235.281235,58.901691 245.108597,63.556339 249.837036,73.150978 
	C252.432678,78.417847 251.689117,80.108223 245.336151,80.973297 
	C242.904922,80.948288 240.873932,80.908562 238.404205,80.839844 
z"/>
<path fill="#CF1476" opacity="1.000000" stroke="none" 
	d="
M161.997574,134.989304 
	C167.026260,135.012253 172.054962,135.035187 177.552155,135.092926 
	C178.483887,136.345901 178.613251,137.910980 179.462372,138.728241 
	C187.312973,146.284180 195.297516,153.700760 203.218811,161.183594 
	C204.903320,162.774872 206.418701,164.548309 208.133774,166.103516 
	C212.692719,170.237488 215.954285,175.363892 222.207718,178.215622 
	C227.584808,180.667709 230.923019,187.242737 235.932266,190.956909 
	C240.131653,194.070602 245.441879,195.686096 250.646301,198.008728 
	C249.140289,201.854095 247.248245,205.655701 244.767090,209.670532 
	C235.013535,210.409622 230.418747,203.004272 225.104584,197.845520 
	C219.607147,192.508926 214.777603,186.780502 207.342133,183.999313 
	C205.946045,183.477112 204.613846,181.953247 203.906860,180.559494 
	C200.321243,173.490799 195.724808,167.508011 188.175461,164.291153 
	C187.466049,163.988846 186.632431,163.290604 186.424561,162.604156 
	C184.133408,155.037552 176.575897,152.672440 171.166077,149.205048 
	C165.224121,145.396591 163.084076,140.997299 161.997574,134.989304 
z"/>
<path fill="#9201A7" opacity="1.000000" stroke="none" 
	d="
M88.108734,223.213379 
	C70.666809,226.631424 55.083763,221.746216 41.149010,211.651062 
	C21.129473,197.147705 10.434428,176.811539 6.498203,152.516754 
	C9.860685,154.412827 12.929284,156.648956 16.130270,158.676041 
	C24.301794,163.850784 29.976028,172.584015 39.855625,175.329590 
	C40.104805,175.398834 40.226147,175.864853 40.446453,176.110550 
	C44.793270,180.958237 49.139679,185.806335 53.510170,190.632614 
	C53.831207,190.987152 54.305355,191.334091 54.757790,191.418076 
	C58.836205,192.175171 60.835835,195.399628 63.614937,197.995026 
	C67.301956,201.438385 71.902931,203.819611 73.444702,209.142639 
	C73.589050,209.641006 74.438316,210.215515 75.005875,210.268738 
	C82.932922,211.012283 84.557320,218.082382 88.108734,223.213379 
z"/>
<path fill="#9901A3" opacity="1.000000" stroke="none" 
	d="
M88.533188,223.200562 
	C84.557320,218.082382 82.932922,211.012283 75.005875,210.268738 
	C74.438316,210.215515 73.589050,209.641006 73.444702,209.142639 
	C71.902931,203.819611 67.301956,201.438385 63.614937,197.995026 
	C60.835835,195.399628 58.836205,192.175171 54.757790,191.418076 
	C54.305355,191.334091 53.831207,190.987152 53.510170,190.632614 
	C49.139679,185.806335 44.793270,180.958237 40.446453,176.110550 
	C40.226147,175.864853 40.104805,175.398834 39.855625,175.329590 
	C29.976028,172.584015 24.301794,163.850784 16.130270,158.676041 
	C12.929284,156.648956 9.860685,154.412827 6.434112,152.135406 
	C5.821014,148.271698 5.505596,144.544510 5.563801,140.421982 
	C13.956898,141.185257 18.779301,147.220322 24.304564,152.141815 
	C31.671589,158.703827 38.801933,165.538712 46.303329,171.940735 
	C54.525959,178.958237 63.108681,185.551941 71.433876,192.451706 
	C78.076546,197.957016 84.816643,203.385818 91.029976,209.352097 
	C94.531212,212.714157 97.053802,217.095352 100.017258,221.017441 
	C96.330719,221.740891 92.644173,222.464325 88.533188,223.200562 
z"/>
<path fill="#AC0893" opacity="1.000000" stroke="none" 
	d="
M65.925522,140.946060 
	C65.985558,143.317047 66.045586,145.688034 65.748016,148.579224 
	C58.555340,150.161423 55.640648,144.547470 51.579758,140.937912 
	C44.450714,134.601181 37.423920,128.149277 30.283951,121.825050 
	C24.150785,116.392609 17.919399,111.071060 11.731449,105.700470 
	C13.921198,99.911621 16.110945,94.122772 18.725349,88.415146 
	C21.399137,91.708839 23.099073,95.570763 25.994358,98.019135 
	C37.334782,107.609024 49.095013,116.700958 60.579128,126.124306 
	C62.098835,127.371307 62.926395,129.461807 64.085068,131.572876 
	C64.705597,134.971420 65.315559,137.958740 65.925522,140.946060 
z"/>
<path fill="#A40599" opacity="1.000000" stroke="none" 
	d="
M11.480192,105.947113 
	C17.919399,111.071060 24.150785,116.392609 30.283951,121.825050 
	C37.423920,128.149277 44.450714,134.601181 51.579758,140.937912 
	C55.640648,144.547470 58.555340,150.161423 65.739006,149.022491 
	C66.319298,149.434326 66.550995,149.923096 66.882797,150.660004 
	C68.589310,158.042877 70.195717,165.177597 71.501770,172.648529 
	C68.793602,171.827805 65.105553,171.271790 64.225922,169.397614 
	C61.892700,164.426437 58.254337,161.200577 53.931141,158.262192 
	C49.051071,154.945267 42.621326,153.337067 40.648102,146.631821 
	C40.503975,146.142075 39.547283,145.934952 39.059143,145.495575 
	C36.651798,143.328690 34.297108,141.103043 31.878807,138.948669 
	C30.542858,137.758530 29.048042,136.742203 27.749851,135.515244 
	C25.685022,133.563705 23.812576,131.403015 21.694708,129.514801 
	C19.695538,127.732391 17.672012,125.811066 15.316781,124.638832 
	C12.717510,123.345154 9.728605,122.834328 6.909417,121.982513 
	C8.349257,116.719589 9.789097,111.456673 11.480192,105.947113 
z"/>
<path fill="#9C04A0" opacity="1.000000" stroke="none" 
	d="
M100.359032,220.914764 
	C97.053802,217.095352 94.531212,212.714157 91.029976,209.352097 
	C84.816643,203.385818 78.076546,197.957016 71.433876,192.451706 
	C63.108681,185.551941 54.525959,178.958237 46.303329,171.940735 
	C38.801933,165.538712 31.671589,158.703827 24.304564,152.141815 
	C18.779301,147.220322 13.956898,141.185257 5.560748,140.001923 
	C5.629024,135.147705 6.073974,130.318192 6.824995,125.462601 
	C9.831078,131.746674 12.782782,137.605530 19.571104,140.915421 
	C23.607372,142.883438 27.761734,145.749634 30.358477,149.309494 
	C37.331425,158.868668 46.993122,165.195297 55.898823,172.477219 
	C61.586349,177.127731 67.008118,182.107422 72.763557,186.668854 
	C75.382957,188.744843 78.521606,190.165665 81.424736,191.883667 
	C82.922577,192.856537 84.555199,193.673141 85.895325,194.828888 
	C92.296692,200.349503 98.643570,205.934280 104.949913,211.563385 
	C106.372108,212.832825 107.554688,214.370712 108.847572,215.785034 
	C107.217842,217.035995 105.648232,218.378693 103.934746,219.501862 
	C102.980484,220.127350 101.786667,220.387360 100.359032,220.914764 
z"/>
<path fill="#9F049E" opacity="1.000000" stroke="none" 
	d="
M81.310043,191.530838 
	C78.521606,190.165665 75.382957,188.744843 72.763557,186.668854 
	C67.008118,182.107422 61.586349,177.127731 55.898823,172.477219 
	C46.993122,165.195297 37.331425,158.868668 30.358477,149.309494 
	C27.761734,145.749634 23.607372,142.883438 19.571104,140.915421 
	C12.782782,137.605530 9.831078,131.746674 6.966703,125.085648 
	C6.824946,124.048492 6.847551,123.362190 6.889786,122.329201 
	C9.728605,122.834328 12.717510,123.345154 15.316781,124.638832 
	C17.672012,125.811066 19.695538,127.732391 21.694708,129.514801 
	C23.812576,131.403015 25.685022,133.563705 27.749851,135.515244 
	C29.048042,136.742203 30.542858,137.758530 31.878807,138.948669 
	C34.297108,141.103043 36.651798,143.328690 39.059143,145.495575 
	C39.547283,145.934952 40.503975,146.142075 40.648102,146.631821 
	C42.621326,153.337067 49.051071,154.945267 53.931141,158.262192 
	C58.254337,161.200577 61.892700,164.426437 64.225922,169.397614 
	C65.105553,171.271790 68.793602,171.827805 71.606537,172.996902 
	C75.072891,179.065399 78.134125,185.121704 81.310043,191.530838 
z"/>
<path fill="#B30A8D" opacity="1.000000" stroke="none" 
	d="
M64.074509,131.161652 
	C62.926395,129.461807 62.098835,127.371307 60.579128,126.124306 
	C49.095013,116.700958 37.334782,107.609024 25.994358,98.019135 
	C23.099073,95.570763 21.399137,91.708839 18.966053,88.170891 
	C20.902710,84.889519 23.023315,81.933632 25.558067,79.186523 
	C30.136881,83.426163 34.056816,87.754288 38.516983,91.426208 
	C47.898422,99.149666 57.563347,106.528778 67.111908,114.049225 
	C66.989662,116.488251 66.867416,118.927269 66.860977,121.717224 
	C66.951927,122.761650 66.927086,123.455162 66.697296,124.776642 
	C65.686401,127.323631 64.880455,129.242645 64.074509,131.161652 
z"/>
<path fill="#C4107E" opacity="1.000000" stroke="none" 
	d="
M55.474640,53.991776 
	C56.880947,53.885651 58.012554,53.962788 59.565666,54.049545 
	C59.109173,55.608570 58.231171,57.157978 57.050148,59.242134 
	C60.769386,61.901569 64.455498,64.542931 68.149330,67.173454 
	C68.817535,67.649307 69.806488,67.921570 70.156769,68.557892 
	C72.893982,73.530304 76.823090,77.005630 82.195518,78.944077 
	C82.927536,79.208199 83.289780,80.497124 83.922424,81.903412 
	C84.019379,82.664879 84.017151,82.834496 84.014915,83.004120 
	C82.434593,84.815979 80.854271,86.627838 78.728409,88.783844 
	C70.425339,90.321907 64.488205,87.144615 59.514534,81.478027 
	C55.594513,77.011879 51.396042,72.779320 47.653946,68.172752 
	C45.994183,66.129555 45.155132,63.419678 43.943539,61.012424 
	C47.695671,58.733295 51.447803,56.454166 55.474640,53.991776 
z"/>
<path fill="#BF0F83" opacity="1.000000" stroke="none" 
	d="
M43.621933,61.120514 
	C45.155132,63.419678 45.994183,66.129555 47.653946,68.172752 
	C51.396042,72.779320 55.594513,77.011879 59.514534,81.478027 
	C64.488205,87.144615 70.425339,90.321907 78.564957,89.074791 
	C76.177681,93.874931 73.408325,98.728271 70.088684,103.758392 
	C68.523315,103.385544 67.340439,103.016823 66.520721,102.256554 
	C61.667076,97.754906 56.999184,93.049248 52.072922,88.630615 
	C46.561359,83.686981 40.777058,79.047447 35.264793,74.104561 
	C34.126587,73.083931 33.663586,71.310303 32.889381,69.883743 
	C36.359695,66.998695 39.830013,64.113647 43.621933,61.120514 
z"/>
<path fill="#B80D87" opacity="1.000000" stroke="none" 
	d="
M32.613365,70.069183 
	C33.663586,71.310303 34.126587,73.083931 35.264793,74.104561 
	C40.777058,79.047447 46.561359,83.686981 52.072922,88.630615 
	C56.999184,93.049248 61.667076,97.754906 66.520721,102.256554 
	C67.340439,103.016823 68.523315,103.385544 69.904091,104.044548 
	C69.304543,107.226326 68.339317,110.298721 67.243004,113.710175 
	C57.563347,106.528778 47.898422,99.149666 38.516983,91.426208 
	C34.056816,87.754288 30.136881,83.426163 25.852013,79.015656 
	C27.933655,75.842216 30.135502,73.048431 32.613365,70.069183 
z"/>
<path fill="#BE0E84" opacity="1.000000" stroke="none" 
	d="
M189.936859,205.323776 
	C190.608704,203.142914 191.297379,201.396057 192.122101,199.316803 
	C198.056168,198.704086 202.192368,201.853439 206.241074,205.473572 
	C214.232880,212.619400 222.378235,219.593521 230.729431,226.845230 
	C227.412674,230.459976 224.216583,234.526138 220.067902,236.985016 
	C218.136337,238.129837 213.533722,237.112686 211.567764,235.419708 
	C205.417679,230.123581 199.456024,224.429443 194.416092,218.097733 
	C191.834930,214.854980 191.373260,209.925125 189.936859,205.323776 
z"/>
<path fill="#CA127A" opacity="1.000000" stroke="none" 
	d="
M161.611359,134.863922 
	C163.084076,140.997299 165.224121,145.396591 171.166077,149.205048 
	C176.575897,152.672440 184.133408,155.037552 186.424561,162.604156 
	C186.632431,163.290604 187.466049,163.988846 188.175461,164.291153 
	C195.724808,167.508011 200.321243,173.490799 203.906860,180.559494 
	C204.613846,181.953247 205.946045,183.477112 207.342133,183.999313 
	C214.777603,186.780502 219.607147,192.508926 225.104584,197.845520 
	C230.418747,203.004272 235.013535,210.409622 244.574158,209.945892 
	C239.151398,216.542465 234.759338,216.893173 228.533524,210.891251 
	C223.657883,206.190933 219.145920,201.115295 214.350861,196.328140 
	C213.104355,195.083710 211.480392,193.598923 209.896423,193.422592 
	C204.318542,192.801651 201.289612,189.541443 199.289459,184.378632 
	C199.168655,183.606491 199.208618,183.123932 199.473938,182.080460 
	C200.641586,179.049744 201.171188,176.845825 197.155060,177.570831 
	C193.740692,177.601089 190.326309,177.631348 186.341492,177.321106 
	C179.703705,169.203705 174.433777,160.794144 165.264008,155.839325 
	C161.463455,153.785690 158.548187,150.072769 155.282669,147.057724 
	C153.346008,145.269623 151.293289,143.539764 149.694260,141.473068 
	C148.187469,139.525589 147.207047,137.170868 145.995056,134.995300 
	C151.071747,134.909714 156.148453,134.824127 161.611359,134.863922 
z"/>
<path fill="#A32974" opacity="1.000000" stroke="none" 
	d="
M84.181679,82.837234 
	C84.017151,82.834496 84.019379,82.664879 84.021553,82.240501 
	C84.021492,81.985741 84.500374,81.975609 84.739532,81.971489 
	C84.777817,82.209953 84.567726,82.444275 84.181679,82.837234 
z"/>
<path fill="#E81D5F" opacity="1.000000" stroke="none" 
	d="
M236.950806,134.746979 
	C244.912415,134.203308 252.888092,134.016586 260.864868,133.929214 
	C265.401581,133.879532 267.599945,136.189133 267.348572,140.771698 
	C267.084412,145.586273 266.851257,150.402542 266.549988,155.705124 
	C263.804413,158.327927 261.308899,159.326035 258.101379,156.625290 
	C252.962311,152.298172 247.736450,147.964676 242.049545,144.436035 
	C238.238037,142.071060 236.623672,139.363144 236.950806,134.746979 
z"/>
<path fill="#A0059C" opacity="1.000000" stroke="none" 
	d="
M156.781281,245.209198 
	C163.960892,250.533905 170.857193,256.039612 177.908081,261.864471 
	C172.605057,263.700745 167.147446,265.217865 161.131668,266.585571 
	C158.126770,264.304688 155.497482,262.344788 153.286972,259.991455 
	C151.259277,257.832703 149.683334,255.249680 147.908325,252.853607 
	C150.771545,250.365814 153.634750,247.878021 156.781281,245.209198 
z"/>
<path fill="#9804A3" opacity="1.000000" stroke="none" 
	d="
M147.589279,252.990906 
	C149.683334,255.249680 151.259277,257.832703 153.286972,259.991455 
	C155.497482,262.344788 158.126770,264.304688 160.769836,266.698669 
	C152.387207,267.674774 143.810471,268.417786 135.227051,269.073486 
	C133.754135,269.186005 132.127777,269.254242 130.798782,268.748199 
	C129.397354,268.214600 127.535133,267.148834 127.246605,265.977539 
	C127.009270,265.014069 128.508377,263.073364 129.706741,262.399017 
	C135.474045,259.153809 141.400360,256.191162 147.589279,252.990906 
z"/>
<path fill="#C1137C" opacity="1.000000" stroke="none" 
	d="
M145.736053,135.108490 
	C147.207047,137.170868 148.187469,139.525589 149.694260,141.473068 
	C151.293289,143.539764 153.346008,145.269623 155.282669,147.057724 
	C158.548187,150.072769 161.463455,153.785690 165.264008,155.839325 
	C174.433777,160.794144 179.703705,169.203705 185.881927,177.268066 
	C182.629349,177.598526 179.265900,177.641541 175.447296,177.217163 
	C175.219849,171.665680 175.054977,166.511047 170.366074,163.365494 
	C167.002853,161.109268 162.999557,159.831512 159.448227,157.822998 
	C156.985107,156.429962 153.853760,155.015167 152.717163,152.756531 
	C150.927185,149.199524 148.704712,147.778793 144.997131,147.577454 
	C144.453262,144.736725 143.925110,142.309052 143.396957,139.881363 
	C143.407272,138.901871 143.417587,137.922394 143.458984,136.580872 
	C144.152405,135.886459 144.814728,135.554077 145.736053,135.108490 
z"/>
<path fill="#C30F80" opacity="1.000000" stroke="none" 
	d="
M145.012863,147.990509 
	C148.704712,147.778793 150.927185,149.199524 152.717163,152.756531 
	C153.853760,155.015167 156.985107,156.429962 159.448227,157.822998 
	C162.999557,159.831512 167.002853,161.109268 170.366074,163.365494 
	C175.054977,166.511047 175.219849,171.665680 174.991547,177.156784 
	C171.961655,177.597412 168.932358,177.631058 165.367859,177.301941 
	C163.148361,174.542343 161.946075,171.433334 159.678360,169.898438 
	C155.104691,166.802795 149.951614,164.563202 145.021698,161.509003 
	C145.008179,156.695175 145.010513,152.342850 145.012863,147.990509 
z"/>
<path fill="#BD0F84" opacity="1.000000" stroke="none" 
	d="
M145.037537,161.970474 
	C149.951614,164.563202 155.104691,166.802795 159.678360,169.898438 
	C161.946075,171.433334 163.148361,174.542343 164.916687,177.246262 
	C158.604858,177.393555 152.209030,177.233780 145.388489,176.556488 
	C144.988373,171.349487 145.012955,166.659973 145.037537,161.970474 
z"/>
<path fill="#A62374" opacity="1.000000" stroke="none" 
	d="
M145.021683,161.509003 
	C145.012955,166.659973 144.988373,171.349487 144.952576,176.499786 
	C144.340622,175.139618 143.244171,173.324875 143.221344,171.496719 
	C143.093674,161.276413 143.225510,151.052841 143.332825,140.355881 
	C143.925110,142.309052 144.453262,144.736725 144.997131,147.577454 
	C145.010513,152.342850 145.008179,156.695175 145.021683,161.509003 
z"/>
<path fill="#C1137C" opacity="1.000000" stroke="none" 
	d="
M197.201569,177.848480 
	C201.171188,176.845825 200.641586,179.049744 199.527618,181.721756 
	C198.838043,180.995712 198.320145,180.067474 197.581085,178.908569 
	C197.322632,178.493988 197.285355,178.310059 197.201569,177.848480 
z"/>
<path fill="#971C80" opacity="1.000000" stroke="none" 
	d="
M64.085068,131.572876 
	C64.880455,129.242645 65.686401,127.323631 66.693977,125.124802 
	C66.584442,129.909393 66.273277,134.973816 65.943817,140.492142 
	C65.315559,137.958740 64.705597,134.971420 64.085068,131.572876 
z"/>
</svg>